# xmcd CD database file
#
# Track frame offsets:
#	150
#	55462
#	74813
#	90474
#	116929
#	131655
#	146569
#	160294
#	174123
#	189275
#	210770
#	224718
#	240196
#	252112
#	266833
#	281663
#	293682
#	306652
#
# Disc length: 4561 seconds
#
# Revision: 0
# Processed by: cddbd v1.5.2PL0 Copyright (c) Steve Scherf et al.
# Submitted via: CDex 1.70beta2
#
DISCID=1911cf12
DTITLE=Benny Goodman - Giants of Jazz Disc 2
DYEAR=1900
DGENRE=Jazz
TTITLE0=Sing, Sing, Sing (introducing Christopher Columbus): Benny Goodman and His Orchestra 
TTITLE1=Roll ‘Em: Benny Goodman and His Orchestra 
TTITLE2=Opus 1/2: Benny Goodman Quartet
TTITLE3=Pick‑a‑Rib: Benny Goodman Quintet
TTITLE4=And the Angels Sing: Benny Goodman and His Orchestra 
TTITLE5=Flying Home: Benny Goodman Sextet
TTITLE6=I’m Confessin’: Benny Goodman Sextet 
TTITLE7=Wholly Cats: Benny Goodman and His Sextet Featuring Count Basie 
TTITLE8=As Long As I Live: Benny Goodman and His Sextet Featuring Count Basie 
TTITLE9=Benny Rides Again: Benny Goodman and His Orchestra
TTITLE10=Scarecrow: Benny Goodman and His Orchestra
TTITLE11=Air Mail Special: Benny Goodman and His Sextet 
TTITLE12=The Earl: Benny Goodman and His Orchestra 
TTITLE13=On the Sunny Side of the Street: Benny Goodman Sextet
TTITLE14=Why Don’t You Do Right: Benny Goodman and His Orchestra
TTITLE15=Mission to Moscow: Benny Goodman and His Orchestra 
TTITLE16=Rachel’s Dream: Benny Goodman Sextet 
TTITLE17=Oh, Baby!: Benny Goodman and His Orchestra
EXTD=
EXTT0=
EXTT1=
EXTT2=
EXTT3=
EXTT4=
EXTT5=
EXTT6=
EXTT7=
EXTT8=
EXTT9=
EXTT10=
EXTT11=
EXTT12=
EXTT13=
EXTT14=
EXTT15=
EXTT16=
EXTT17=
PLAYORDER=
